# xmcd
#
# Track frame offsets:
#	150
#	12068
#	21387
#	34213
#	43719
#	62694
#	79854
#
# Disc length: 1221 seconds
#
# Revision: 1
# Processed by: cddbd v1.5.2PL0 Copyright (c) Steve Scherf et al.
# Submitted via: EasyCDDAExtractor 5.1.0
#
DISCID=5104c307
DTITLE=The Pedro Delgados - Tremendous Rambling
DYEAR=2007
DGENRE=Bluegrass
TTITLE0=Tremendous rambling
TTITLE1=Suzanne
TTITLE2=Ft. Worth Texas
TTITLE3=Kick the can
TTITLE4=In front of your eyes
TTITLE5=Rosey
TTITLE6=I wanna be your daddy
EXTD=
EXTT0=
EXTT1=
EXTT2=
EXTT3=
EXTT4=
EXTT5=
EXTT6=
PLAYORDER=
